<svg width="393" height="243" viewBox="0 0 393 243" fill="none" xmlns="http://www.w3.org/2000/svg">
<g clip-path="url(#clip0_622_1428)">
<path d="M156.009 12.4236L150.63 15.5295L177.527 31.0591L172.148 34.165L145.248 18.6355L139.868 21.7414L166.768 37.2709L161.389 40.3769L134.489 24.8473L129.109 27.9532L156.009 43.4828L150.63 46.5887L123.73 31.0591L118.35 34.1651L145.248 49.6946L139.868 52.8005L112.97 37.2711L107.591 40.377L134.489 55.9065L129.109 59.0124L102.211 43.4829L96.8319 46.5888L123.73 62.1184L118.35 65.2243L91.4524 49.6947L86.0729 52.8007L112.971 68.3302L107.591 71.4361L80.6934 55.9066L75.3138 59.0125L102.211 74.5421L96.8319 77.648L69.9343 62.1184L64.5548 65.2244L91.4524 80.7539L86.0729 83.8598L59.1752 68.3303L53.7957 71.4362L80.6934 86.9658L75.3138 90.0717L48.4161 74.5421L43.0366 77.6481L69.9343 93.1776L64.5548 96.2835L37.6571 80.754L32.2776 83.86L59.1752 99.3894L53.7957 102.495L26.8981 86.9659L21.5185 90.0718L48.4161 105.601L43.0366 108.707L16.139 93.1777L10.7595 96.2837L37.6571 111.813L32.2776 114.919L5.37994 99.3896L0.000366211 102.495L26.8981 118.025L23.8237 119.799C16.5859 123.977 16.5859 130.708 23.8237 134.887L26.8981 136.66L0.000366211 152.19L5.37995 155.296L32.2776 139.766L37.6571 142.872L10.7595 158.402L16.139 161.508L43.0366 145.978L48.4161 149.084L21.5185 164.614L26.8981 167.72L53.7957 152.19L59.1752 155.296L32.2776 170.826L37.6571 173.931L64.5548 158.402L69.9343 161.508L43.0366 177.037L48.4161 180.143L75.3138 164.614L80.6934 167.72L53.7957 183.249L59.1752 186.355L86.0729 170.826L91.4524 173.932L64.5548 189.461L69.9343 192.567L96.8319 177.038L102.211 180.143L75.3138 195.673L80.6934 198.779L107.591 183.249L112.971 186.355L86.0729 201.885L91.4524 204.991L118.35 189.461L123.73 192.567L96.8319 208.097L102.211 211.202L129.109 195.673L134.489 198.779L107.591 214.309L112.97 217.414L139.868 201.885L145.248 204.991L118.35 220.52L123.73 223.626L150.63 208.097L156.009 211.202L129.109 226.732L134.489 229.838L161.389 214.308L166.768 217.414L139.868 232.944L145.248 236.05L172.148 220.52L177.527 223.626L150.63 239.156L156.009 242.262L183.905 225.845L180.602 225.4C187.839 229.579 199.492 229.579 206.73 225.4L203.094 225.956L231.322 242.262L236.702 239.156L209.804 223.626L215.184 220.52L242.082 236.05L247.461 232.944L220.563 217.414L225.943 214.308L252.841 229.838L258.22 226.732L231.322 211.202L236.702 208.097L263.6 223.626L268.979 220.52L242.082 204.991L247.461 201.885L274.359 217.414L279.738 214.308L252.841 198.779L258.22 195.673L285.118 211.202L290.497 208.096L263.6 192.567L268.979 189.461L295.877 204.991L301.256 201.885L274.359 186.355L279.738 183.249L306.636 198.779L312.015 195.673L285.118 180.143L290.497 177.037L317.395 192.567L322.774 189.461L295.877 173.931L301.256 170.825L328.154 186.355L333.534 183.249L306.636 167.72L312.015 164.614L338.913 180.143L344.293 177.037L317.395 161.508L322.774 158.402L349.672 173.931L355.052 170.825L328.154 155.296L333.534 152.19L360.431 167.719L365.813 164.613L338.913 149.084L344.293 145.978L371.193 161.508L376.572 158.402L349.672 142.872L355.052 139.766L381.952 155.296L387.331 152.19L360.431 136.66L363.506 134.887C370.741 130.709 370.743 123.982 363.513 119.803L365.813 121.131L392.711 105.601L387.331 102.495L360.431 118.025L355.052 114.919L381.952 99.3894L376.572 96.2834L349.672 111.813L344.292 108.707L371.193 93.1775L365.813 90.0716L338.913 105.601L333.533 102.495L360.431 86.9657L355.052 83.8597L328.154 99.3893L322.774 96.2834L349.672 80.7538L344.292 77.6479L317.395 93.1774L312.015 90.0715L338.913 74.542L333.533 71.4361L306.636 86.9656L301.256 83.8597L328.154 68.3301L322.774 65.2242L295.877 80.7538L290.497 77.6478L317.395 62.1183L312.015 59.0124L285.117 74.5419L279.738 71.4359L306.636 55.9064L301.256 52.8005L274.358 68.33L268.979 65.2241L295.877 49.6945L290.497 46.5886L263.599 62.1182L258.22 59.0122L285.117 43.4827L279.738 40.3768L252.84 55.9063L247.461 52.8004L274.358 37.2708L268.979 34.1649L242.081 49.6945L236.702 46.5885L263.599 31.059L258.22 27.9531L231.322 43.4826L225.943 40.3767L252.84 24.8472L247.461 21.7412L220.563 37.2708L215.184 34.1649L242.081 18.6353L236.702 15.5294L209.804 31.0589L206.73 29.2852C199.492 25.1064 187.839 25.1064 180.601 29.2852L182.906 27.953L156.009 12.4236L156.009 12.4236Z" fill="#0099CC"/>
<path d="M26.8981 105.601L0.00012207 90.0715L5.3797 86.9656L32.2777 102.495L26.8981 105.601Z" fill="#ABE3F5"/>
<path d="M37.6571 99.3891L10.7592 83.8596L16.1388 80.7537L43.0368 96.2832L37.6571 99.3891Z" fill="#ABE3F5"/>
<path d="M48.4164 93.1772L21.5184 77.6477L26.898 74.5417L53.796 90.0713L48.4164 93.1772Z" fill="#ABE3F5"/>
<path d="M59.1755 86.9655L32.2776 71.436L37.6572 68.3301L64.5551 83.8596L59.1755 86.9655V86.9655Z" fill="#ABE3F5"/>
<path d="M69.9348 80.7536L43.0369 65.2241L48.4164 62.1182L75.3144 77.6477L69.9348 80.7536Z" fill="#ABE3F5"/>
<path d="M80.694 74.5417L53.796 59.0121L59.1756 55.9062L86.0736 71.4358L80.694 74.5417H80.694Z" fill="#ABE3F5"/>
<path d="M91.453 68.3301L64.5551 52.8005L69.9347 49.6946L96.8326 65.2241L91.453 68.3301Z" fill="#ABE3F5"/>
<path d="M102.212 62.1181L75.3143 46.5885L80.6939 43.4827L107.592 59.0122L102.212 62.1181V62.1181Z" fill="#ABE3F5"/>
<path d="M112.971 55.9065L86.0735 40.3769L91.4531 37.271L118.351 52.8005L112.971 55.9065V55.9065Z" fill="#ABE3F5"/>
<path d="M123.731 49.6945L96.8328 34.1649L102.212 31.0591L129.11 46.5886L123.731 49.6945V49.6945Z" fill="#ABE3F5"/>
<path d="M134.49 43.4826L107.592 27.9531L112.971 24.8472L139.869 40.3767L134.49 43.4826V43.4826Z" fill="#ABE3F5"/>
<path d="M145.249 37.2709L118.351 21.7414L123.731 18.6355L150.629 34.165L145.249 37.2709V37.2709Z" fill="#ABE3F5"/>
<path d="M156.008 31.0591L129.11 15.5295L134.49 12.4236L161.388 27.9531L156.008 31.0591V31.0591Z" fill="#ABE3F5"/>
<path d="M166.767 24.8471L139.87 9.31753L145.249 6.21167L172.147 21.7412L166.767 24.8471V24.8471Z" fill="#ABE3F5"/>
<path d="M177.527 18.6355L150.629 3.10592L156.008 0L182.906 15.5296L177.527 18.6355Z" fill="#ABE3F5"/>
<path d="M236.702 3.10596L209.804 18.6355L215.184 21.7414L242.082 6.21188L236.702 3.10596V3.10596Z" fill="#ABE3F5"/>
<path d="M247.461 9.31763L220.563 24.8472L225.943 27.9531L252.841 12.4236L247.461 9.31763V9.31763Z" fill="#ABE3F5"/>
<path d="M258.22 15.5295L231.323 31.0591L236.702 34.165L263.6 18.6355L258.22 15.5295V15.5295Z" fill="#ABE3F5"/>
<path d="M268.98 21.7415L242.082 37.271L247.461 40.3769L274.359 24.8474L268.98 21.7415V21.7415Z" fill="#ABE3F5"/>
<path d="M279.739 27.9531L252.841 43.4827L258.221 46.5885L285.118 31.059L279.739 27.9531V27.9531Z" fill="#ABE3F5"/>
<path d="M290.498 34.165L263.6 49.6946L268.98 52.8005L295.878 37.271L290.498 34.165V34.165Z" fill="#ABE3F5"/>
<path d="M301.257 40.377L274.359 55.9065L279.739 59.0124L306.637 43.4829L301.257 40.377V40.377Z" fill="#ABE3F5"/>
<path d="M312.016 46.5886L285.118 62.1182L290.498 65.2241L317.396 49.6946L312.016 46.5886Z" fill="#ABE3F5"/>
<path d="M322.776 52.8003L295.878 68.3298L301.257 71.4358L328.155 55.9062L322.776 52.8003V52.8003Z" fill="#ABE3F5"/>
<path d="M333.535 59.0122L306.637 74.5418L312.016 77.6477L338.914 62.1181L333.535 59.0122Z" fill="#ABE3F5"/>
<path d="M344.294 65.2241L317.396 80.7537L322.776 83.8596L349.674 68.33L344.294 65.2241V65.2241Z" fill="#ABE3F5"/>
<path d="M355.053 71.4358L328.155 86.9653L333.535 90.0712L360.433 74.5417L355.053 71.4358V71.4358Z" fill="#ABE3F5"/>
<path d="M365.812 77.6477L338.914 93.1773L344.294 96.2832L371.192 80.7536L365.812 77.6477V77.6477Z" fill="#ABE3F5"/>
<path d="M376.572 83.8596L349.674 99.3891L355.053 102.495L381.951 86.9655L376.572 83.8596V83.8596Z" fill="#ABE3F5"/>
<path d="M387.331 90.0713L360.433 105.601L365.812 108.707L392.71 93.1772L387.331 90.0713Z" fill="#ABE3F5"/>
<path d="M193.666 19.9384C188.943 19.9384 184.218 20.984 180.6 23.0734L33.0058 108.284L18.4104 108.272L18.4154 120.637C18.206 123.526 19.9871 126.459 23.8241 128.674L180.6 219.187C187.837 223.366 199.493 223.366 206.731 219.187L363.506 128.674C367.267 126.503 369.055 123.642 368.907 120.81C368.927 120.81 368.934 108.585 368.934 108.585L354.822 108.573L206.731 23.0728C203.112 20.9834 198.389 19.9377 193.666 19.9377L193.666 19.9384V19.9384Z" fill="#C8CCCF"/>
<path d="M193.666 19.9385C188.943 19.9385 184.218 20.9841 180.6 23.0735L33.0058 108.285L18.4104 108.272L18.4154 120.638C18.206 123.526 19.9871 126.459 23.8241 128.674L180.6 219.187C184.219 221.277 188.942 222.322 193.666 222.322L193.666 19.9385V19.9385Z" fill="#7A7A7A"/>
<path d="M206.73 10.6487L363.507 101.164C370.744 105.343 370.745 112.071 363.507 116.25L206.73 206.765C199.492 210.943 187.839 210.943 180.601 206.765L23.824 116.25C16.5862 112.071 16.5862 105.343 23.824 101.164L180.601 10.6487C187.838 6.46997 199.492 6.46997 206.73 10.6487Z" fill="#9299A0"/>
<path d="M193.666 35.2156C185.887 35.2156 178.109 36.9353 172.148 40.3767L75.7849 96.0113H66.3773L66.3724 108.639C66.3447 113.152 69.3234 117.672 75.3141 121.13L172.148 177.037C184.069 183.919 203.263 183.919 215.184 177.037L312.016 121.13C317.798 117.792 320.768 113.465 320.94 109.11C320.948 109.11 320.948 108.947 320.948 108.947C320.952 108.788 320.952 108.63 320.948 108.471L320.953 96.0064H311.538L215.184 40.3767C209.224 36.9353 201.445 35.2156 193.666 35.2156V35.2156Z" fill="#C8CCCF"/>
<path d="M193.666 35.2156C185.887 35.2156 178.109 36.9353 172.148 40.3767L75.7849 96.0113H66.3773L66.3724 108.639C66.3447 113.152 69.3234 117.672 75.3141 121.13L172.148 177.037C178.109 180.478 185.887 182.198 193.666 182.198L193.666 35.2156V35.2156Z" fill="#7A7A7A"/>
<path d="M215.184 27.953L312.016 83.8594C323.938 90.742 323.938 101.824 312.016 108.707L215.184 164.613C203.263 171.496 184.068 171.496 172.147 164.613L75.3144 108.707C63.3932 101.824 63.3932 90.742 75.3144 83.8594L172.147 27.953C184.068 21.0704 203.263 21.0704 215.184 27.953H215.184V27.953Z" fill="#ABE3F5"/>
<path d="M133.561 99.1482C135.678 97.9262 138.201 97.3464 141.132 97.4091C144.008 97.4405 146.505 98.0672 148.621 99.2892L160.1 105.916C160.263 106.01 160.235 106.12 160.018 106.245L152.122 110.804C151.959 110.898 151.796 110.898 151.633 110.804L140.155 104.177C139.938 104.052 139.748 104.036 139.585 104.13L132.096 108.454C131.933 108.548 131.96 108.658 132.177 108.783L174.265 133.083C174.428 133.177 174.59 133.177 174.753 133.083L182.243 128.759C182.405 128.665 182.406 128.571 182.243 128.477L167.345 119.875C167.128 119.75 167.128 119.625 167.345 119.5L175.242 114.94C175.404 114.846 175.594 114.862 175.812 114.987L190.628 123.542C192.744 124.764 193.857 126.221 193.966 127.913C194.02 129.573 192.989 131.015 190.872 132.237L190.953 132.19L180.452 138.253L180.533 138.206C179.448 138.832 178.254 139.303 176.951 139.616C175.595 139.898 174.238 140.055 172.881 140.086C171.524 140.055 170.167 139.898 168.811 139.616C167.508 139.303 166.314 138.833 165.229 138.206L123.222 113.953C122.191 113.358 121.404 112.684 120.861 111.932C120.319 111.118 120.047 110.334 120.047 109.582C120.047 108.768 120.319 107.984 120.861 107.232C121.35 106.449 122.137 105.744 123.222 105.117L123.141 105.164L133.642 99.1011L133.561 99.1482V99.1482Z" fill="#333333"/>
<path d="M177.322 82.6252C177.159 82.5312 176.996 82.5311 176.833 82.6252L167.878 87.7953C167.715 87.8893 167.715 87.9832 167.878 88.0772L187.742 99.5455C187.905 99.6395 188.067 99.6395 188.23 99.5455L192.382 97.1484C192.762 96.9291 193.142 96.6157 193.522 96.2084C193.956 95.7698 194.227 95.2684 194.336 94.7044C194.39 94.1091 194.2 93.4667 193.766 92.7774C193.277 92.0567 192.382 91.3204 191.079 90.5684L177.322 82.6252V82.6252ZM170.402 77.8781C171.487 77.2514 172.708 76.7971 174.065 76.515C175.422 76.1703 176.806 75.9981 178.217 75.9981C179.574 75.9667 180.931 76.1234 182.287 76.468C183.644 76.75 184.838 77.1887 185.869 77.7841L203.209 87.7952C204.512 88.5472 205.516 89.3776 206.221 90.2863C206.927 91.1949 207.307 92.1036 207.361 93.0123C207.415 93.921 207.198 94.7983 206.71 95.6443C206.167 96.459 205.353 97.1797 204.267 97.8064L194.661 103.352C194.553 103.415 194.58 103.494 194.743 103.587L217.293 116.607C217.51 116.732 217.51 116.857 217.293 116.983L208.908 121.824C208.745 121.918 208.555 121.902 208.338 121.777L151.596 89.0172C151.434 88.9232 151.434 88.8292 151.596 88.7352L170.402 77.8781V77.8781Z" fill="#333333"/>
<path d="M214.206 52.5879C214.423 52.4626 214.613 52.4469 214.775 52.5409L264.109 81.0234C265.194 81.65 265.981 82.3551 266.469 83.1385C267.012 83.8904 267.284 84.6738 267.284 85.4884C267.284 86.3032 267.012 87.1179 266.469 87.9325C265.927 88.6845 265.14 89.3583 264.109 89.9535L253.281 96.2047C252.196 96.8314 251.002 97.3014 249.699 97.6147C248.343 97.8967 246.959 98.0378 245.548 98.0377C244.137 98.0378 242.753 97.8967 241.396 97.6147C240.093 97.3014 238.899 96.8314 237.814 96.2047L188.481 67.7221C188.318 67.6282 188.345 67.5185 188.562 67.3931L196.947 62.5521C197.11 62.458 197.273 62.458 197.436 62.5521L246.687 90.9876C246.904 91.1129 247.121 91.1129 247.339 90.9876L255.072 86.5225C255.29 86.3971 255.29 86.2718 255.072 86.1465L205.821 57.7109C205.658 57.617 205.658 57.5229 205.821 57.429L214.206 52.5879V52.5879Z" fill="#333333"/>
<path d="M26.8981 124.236L0.00012207 139.766L5.3797 142.872L32.2777 127.342L26.8981 124.236V124.236Z" fill="#ABE3F5"/>
<path d="M37.6572 130.448L10.7593 145.978L16.1389 149.083L43.0369 133.554L37.6572 130.448Z" fill="#ABE3F5"/>
<path d="M48.4165 136.66L21.5186 152.189L26.8981 155.295L53.7961 139.766L48.4165 136.66Z" fill="#ABE3F5"/>
<path d="M59.1757 142.872L32.2777 158.401L37.6574 161.507L64.5553 145.978L59.1757 142.872V142.872Z" fill="#ABE3F5"/>
<path d="M69.9349 149.083L43.037 164.613L48.4166 167.719L75.3145 152.189L69.9349 149.083Z" fill="#ABE3F5"/>
<path d="M80.6941 155.295L53.7961 170.825L59.1757 173.931L86.0737 158.401L80.6941 155.295H80.6941Z" fill="#ABE3F5"/>
<path d="M91.4531 161.507L64.5552 177.037L69.9348 180.143L96.8327 164.613L91.4531 161.507V161.507Z" fill="#ABE3F5"/>
<path d="M102.212 167.719L75.3145 183.249L80.694 186.354L107.592 170.825L102.212 167.719V167.719Z" fill="#ABE3F5"/>
<path d="M112.972 173.931L86.0736 189.46L91.4532 192.566L118.351 177.037L112.972 173.931V173.931Z" fill="#ABE3F5"/>
<path d="M123.731 180.143L96.8329 195.672L102.213 198.778L129.11 183.249L123.731 180.143V180.143Z" fill="#ABE3F5"/>
<path d="M134.49 186.354L107.592 201.884L112.971 204.99L139.869 189.46L134.49 186.354V186.354Z" fill="#ABE3F5"/>
<path d="M145.249 192.566L118.351 208.096L123.731 211.202L150.629 195.672L145.249 192.566V192.566Z" fill="#ABE3F5"/>
<path d="M156.008 198.778L129.11 214.308L134.49 217.414L161.388 201.884L156.008 198.778V198.778Z" fill="#ABE3F5"/>
<path d="M166.768 204.99L139.87 220.519L145.249 223.625L172.147 208.096L166.768 204.99Z" fill="#ABE3F5"/>
<path d="M177.527 211.202L150.629 226.731L156.008 229.837L182.906 214.308L177.527 211.202V211.202Z" fill="#ABE3F5"/>
<path d="M231.323 229.837L204.425 214.308L209.804 211.202L236.702 226.731L231.323 229.837V229.837Z" fill="#ABE3F5"/>
<path d="M242.082 223.625L215.184 208.096L220.563 204.99L247.461 220.519L242.082 223.625V223.625Z" fill="#ABE3F5"/>
<path d="M252.841 217.414L225.943 201.884L231.322 198.778L258.22 214.308L252.841 217.414V217.414Z" fill="#ABE3F5"/>
<path d="M263.6 211.202L236.702 195.672L242.082 192.566L268.98 208.096L263.6 211.202Z" fill="#ABE3F5"/>
<path d="M274.359 204.99L247.461 189.46L252.841 186.354L279.739 201.884L274.359 204.99V204.99Z" fill="#ABE3F5"/>
<path d="M285.118 198.778L258.22 183.249L263.6 180.143L290.498 195.672L285.118 198.778V198.778Z" fill="#ABE3F5"/>
<path d="M295.877 192.566L268.979 177.037L274.359 173.931L301.257 189.46L295.877 192.566V192.566Z" fill="#ABE3F5"/>
<path d="M306.637 186.354L279.739 170.825L285.118 167.719L312.016 183.249L306.637 186.354Z" fill="#ABE3F5"/>
<path d="M317.396 180.143L290.498 164.613L295.878 161.507L322.776 177.037L317.396 180.143V180.143Z" fill="#ABE3F5"/>
<path d="M328.155 173.931L301.257 158.401L306.637 155.295L333.535 170.825L328.155 173.931V173.931Z" fill="#ABE3F5"/>
<path d="M338.914 167.719L312.016 152.189L317.396 149.083L344.294 164.613L338.914 167.719V167.719Z" fill="#ABE3F5"/>
<path d="M349.673 161.507L322.776 145.978L328.155 142.872L355.053 158.401L349.673 161.507Z" fill="#ABE3F5"/>
<path d="M360.433 155.295L333.535 139.766L338.914 136.66L365.812 152.189L360.433 155.295Z" fill="#ABE3F5"/>
<path d="M371.192 149.083L344.294 133.554L349.673 130.448L376.571 145.978L371.192 149.083V149.083Z" fill="#ABE3F5"/>
<path d="M381.951 142.872L355.053 127.342L360.433 124.236L387.331 139.766L381.951 142.872Z" fill="#ABE3F5"/>
</g>
<defs>
<clipPath id="clip0_622_1428">
<rect width="392.711" height="242.262" fill="white"/>
</clipPath>
</defs>
</svg>
